<svg width="107" height="107" viewBox="0 0 107 107" fill="none" xmlns="http://www.w3.org/2000/svg">
<circle opacity="0.6" cx="53.5" cy="53.5" r="53.5" fill="#092241"/>
<path d="M47.65 35.1246V72.7054C47.65 74.0645 47.0337 75.368 45.9366 76.329C44.8395 77.2901 43.3515 77.83 41.8 77.83H39.85C38.2985 77.83 36.8105 77.2901 35.7134 76.329C34.6163 75.368 34 74.0645 34 72.7054V35.1246C34 33.7655 34.6163 32.462 35.7134 31.501C36.8105 30.5399 38.2985 30 39.85 30H41.8C43.3515 30 44.8395 30.5399 45.9366 31.501C47.0337 32.462 47.65 33.7655 47.65 35.1246ZM67.15 30H65.2C63.6485 30 62.1605 30.5399 61.0634 31.501C59.9663 32.462 59.35 33.7655 59.35 35.1246V72.7054C59.35 74.0645 59.9663 75.368 61.0634 76.329C62.1605 77.2901 63.6485 77.83 65.2 77.83H67.15C68.7015 77.83 70.1895 77.2901 71.2866 76.329C72.3837 75.368 73 74.0645 73 72.7054V35.1246C73 33.7655 72.3837 32.462 71.2866 31.501C70.1895 30.5399 68.7015 30 67.15 30Z" fill="white"/>
</svg>
